<svg viewBox="0 0 693.91 127.97" xmlns="http://www.w3.org/2000/svg"><defs><style>.cls-1{fill:#ffffff;stroke:#1d1d1b;stroke-miterlimit:10;stroke-width:0.05px;}</style></defs><title>Recurso 4</title><g data-name="Capa 2" id="Capa_2"><g data-name="corte gr" id="corte_gr"><path d="M355.17,71.91c0-13.52,0-27,0-40.56a12.14,12.14,0,0,1,.47-3.61A12.66,12.66,0,0,1,359.27,22a23.76,23.76,0,0,1,15.85-5.9,67.06,67.06,0,0,1,7.37.25,22.3,22.3,0,0,1,9.07,3,19.79,19.79,0,0,1,3.83,3,11.94,11.94,0,0,1,3.74,7.34,23.1,23.1,0,0,1,.22,2.87q0,39.74,0,79.45A13.31,13.31,0,0,1,396,121a20,20,0,0,1-7.71,5.2c-4.25,1.71-8.68,1.8-13.15,1.72a24.63,24.63,0,0,1-11.84-3.07,33.64,33.64,0,0,1-3.17-2.12,13.42,13.42,0,0,1-4.16-5.69,10.66,10.66,0,0,1-.84-4.39Q355.16,92.29,355.17,71.91ZM387,72q0-24.06,0-48.13a4.73,4.73,0,0,0-1.58-3.74A13.16,13.16,0,0,0,383,18.5a4.92,4.92,0,0,0-1.86-.58c-1.56-.15-3.13-.19-4.69-.25a10.21,10.21,0,0,0-6.07,1.4,5.24,5.24,0,0,0-2.88,4.59q0,48.3,0,96.61a4.74,4.74,0,0,0,1.15,3.16,7.67,7.67,0,0,0,5.16,2.71,47.35,47.35,0,0,0,5.46.14,9.25,9.25,0,0,0,5.33-1.7A5.24,5.24,0,0,0,387,120Q387,96,387,72Z" class="cls-1"></path><path d="M367.4,13.45V10.52c0-2.75,0-5.5,0-8.26A2,2,0,0,1,369.6,0h15.34a1.89,1.89,0,0,1,2.14,2c0,3.74,0,7.49,0,11.23a1.35,1.35,0,0,1,0,.18A39.09,39.09,0,0,0,367.4,13.45Zm9.86-4.62a2,2,0,1,0-.08-4.09,2,2,0,1,0,.08,4.09Z" class="cls-1"></path><path d="M22.08,21.19a5.31,5.31,0,0,0-5.37,5.37v85.27a5.43,5.43,0,0,0,1.56,3.89,5.06,5.06,0,0,0,3.81,1.62h.85v1.42H0v-1.42h.7a5.26,5.26,0,0,0,4-1.62,5.43,5.43,0,0,0,1.56-3.89V26.56a5.19,5.19,0,0,0-1.56-3.82,5.4,5.4,0,0,0-4-1.55H0V19.77h22.9v1.42Z" class="cls-1"></path><path d="M70.73,98a29.5,29.5,0,0,0,2,9.61,20.37,20.37,0,0,0,4.66,6.72q3.1,3,9,3h2.69a8.11,8.11,0,0,0,5-1.55A4.67,4.67,0,0,0,96.18,112V77.18q0-2.54-3-4.38l-17-9.19q-7.35-4-7.35-10.89V33.07a10.54,10.54,0,0,1,1.34-5.24A13.11,13.11,0,0,1,74,23.66a20.32,20.32,0,0,1,5.58-2.83,21.77,21.77,0,0,1,6.86-1.06h2.69a20.84,20.84,0,0,1,11.31,3.11,3.7,3.7,0,0,0,1.7.43,2.87,2.87,0,0,0,1.76-.57,1.67,1.67,0,0,0,.78-1.41v-.14h2V40.56h-2a31.63,31.63,0,0,0-2-9.76A19.91,19.91,0,0,0,98,24.16q-3.12-3-9-3H86.28a7.88,7.88,0,0,0-4.88,1.55,4.64,4.64,0,0,0-2.05,3.82V52.72a4.79,4.79,0,0,0,3,4.38l17,9.2a16.74,16.74,0,0,1,5.37,4.8,10.43,10.43,0,0,1,2,6.08v28.28a10.23,10.23,0,0,1-1.41,5.16,13.83,13.83,0,0,1-3.75,4.25A19,19,0,0,1,96,117.7a21.77,21.77,0,0,1-6.86,1.06H86.42a19.88,19.88,0,0,1-11.31-3.12,3.81,3.81,0,0,0-1.7-.42,3.16,3.16,0,0,0-1.91.57,1.66,1.66,0,0,0-.77,1.41v.14H68.89V98Z" class="cls-1"></path><path d="M203.22,111.54a8.08,8.08,0,0,0,2.69,4.18,7,7,0,0,0,4.52,1.62h.14v1.42H187.81v-1.42h.28a4.56,4.56,0,0,0,3.82-1.84,4.61,4.61,0,0,0,.85-4.1L187.1,87.22H165.18l-5.65,24.18a4.76,4.76,0,0,0,4.66,5.94h1.56v1.42H149.06v-1.42h1.28a7.13,7.13,0,0,0,4.66-1.62,7.34,7.34,0,0,0,2.55-4.18l21.77-91.77h2.55ZM165.61,85.81h21.21L176.35,40.56Z" class="cls-1"></path><path d="M299.09,111.26a5.91,5.91,0,0,0,1.77,4.24,5.73,5.73,0,0,0,4.31,1.84v1.42H294.71a6,6,0,0,1-6.08-6.08V80a4.67,4.67,0,0,0-2.05-3.82,8.11,8.11,0,0,0-5-1.55h-8.77a.88.88,0,0,0-1,1v36.2a5.43,5.43,0,0,0,1.56,3.89,5.06,5.06,0,0,0,3.81,1.62H278v1.42H255.11v-1.42h.71a5.26,5.26,0,0,0,4-1.62,5.43,5.43,0,0,0,1.56-3.89V26.56a5.19,5.19,0,0,0-1.56-3.82,5.4,5.4,0,0,0-4-1.55h-.71V19.77h26.45a21.7,21.7,0,0,1,6.85,1.06,19.26,19.26,0,0,1,5.52,2.83,14.41,14.41,0,0,1,3.75,4.17,10.19,10.19,0,0,1,1.41,5.24V61.2a11,11,0,0,1-3.32,7.92,18.35,18.35,0,0,1-8.56,4.81,17.42,17.42,0,0,1,8.56,4.67,11,11,0,0,1,3.32,7.92Zm-17.53-38a8,8,0,0,0,5-1.55,4.67,4.67,0,0,0,2.05-3.82V26.56a4.67,4.67,0,0,0-2.05-3.82,8.11,8.11,0,0,0-5-1.55h-8.77a.88.88,0,0,0-1,1V72.09c0,.76.33,1.13,1,1.13Z" class="cls-1"></path><path d="M508.93,21.19a5.29,5.29,0,0,0-5.37,5.37v85.27a5.46,5.46,0,0,0,1.55,3.89,5.09,5.09,0,0,0,3.82,1.62h.85v1.42H486.87v-1.42h.71a5.26,5.26,0,0,0,4-1.62,5.42,5.42,0,0,0,1.55-3.89V25.15l-22.2,93.61h-2.54l-22.06-95v88.1a5.43,5.43,0,0,0,1.56,3.89,5.06,5.06,0,0,0,3.81,1.62h2v1.42H437v-1.42h2a5.07,5.07,0,0,0,3.81-1.62,5.43,5.43,0,0,0,1.56-3.89V26.56a5.31,5.31,0,0,0-5.37-5.37h-2V19.77h18.8L474,97.83l18.38-78.06h17.39v1.42Z" class="cls-1"></path><path d="M606.36,111.54a8,8,0,0,0,2.69,4.18,6.91,6.91,0,0,0,4.52,1.62h.14v1.42H591v-1.42h.28a4.75,4.75,0,0,0,4.66-5.94l-5.65-24.18H568.32l-5.66,24.18a4.61,4.61,0,0,0,.85,4.1,4.56,4.56,0,0,0,3.82,1.84h1.56v1.42H552.2v-1.42h1.27a7.15,7.15,0,0,0,4.67-1.62,7.34,7.34,0,0,0,2.55-4.18l21.77-91.77H585ZM568.74,85.81H590L579.49,40.56Z" class="cls-1"></path><path d="M658,98a30,30,0,0,0,2,9.61,20.4,20.4,0,0,0,4.67,6.72q3.11,3,9,3h2.68a8.11,8.11,0,0,0,5-1.55,4.64,4.64,0,0,0,2-3.82V77.18q0-2.54-3-4.38l-17-9.19q-7.35-4-7.35-10.89V33.07a10.64,10.64,0,0,1,1.34-5.24,13.23,13.23,0,0,1,3.75-4.17,20.38,20.38,0,0,1,5.59-2.83,21.72,21.72,0,0,1,6.86-1.06h2.68a20.84,20.84,0,0,1,11.31,3.11,3.73,3.73,0,0,0,1.7.43,2.92,2.92,0,0,0,1.77-.57,1.67,1.67,0,0,0,.78-1.41v-.14h2V40.56h-2a31.63,31.63,0,0,0-2-9.76,19.94,19.94,0,0,0-4.67-6.64q-3.1-3-9-3h-2.69a7.85,7.85,0,0,0-4.87,1.55,4.64,4.64,0,0,0-2,3.82V52.72a4.79,4.79,0,0,0,3,4.38l17,9.2a16.68,16.68,0,0,1,5.38,4.8,10.43,10.43,0,0,1,2,6.08v28.28a10.24,10.24,0,0,1-1.42,5.16,13.83,13.83,0,0,1-3.75,4.25,19,19,0,0,1-5.51,2.83,21.77,21.77,0,0,1-6.86,1.06h-2.68a19.89,19.89,0,0,1-11.32-3.12,3.77,3.77,0,0,0-1.69-.42,3.11,3.11,0,0,0-1.91.57,1.67,1.67,0,0,0-.78,1.41v.14h-1.84V98Z" class="cls-1"></path></g></g></svg>